<?xml version="1.0" standalone="no"?>
<!DOCTYPE svg PUBLIC "-//W3C//DTD SVG 20010904//EN"
 "http://www.w3.org/TR/2001/REC-SVG-20010904/DTD/svg10.dtd">
<svg version="1.0" xmlns="http://www.w3.org/2000/svg"
 width="700.000000pt" height="700.000000pt" viewBox="0 0 700.000000 700.000000"
 preserveAspectRatio="xMidYMid meet">
<metadata>
Created by potrace 1.11, written by Peter Selinger 2001-2013
</metadata>
<g transform="translate(0.000000,700.000000) scale(0.100000,-0.100000)"
fill="#000000" stroke="none">
<path d="M2759 6395 c-1 -5 -2 -254 -3 -552 -1 -363 2 -544 9 -546 5 -2 161
-3 345 -3 l335 1 0 555 0 555 -342 0 c-226 0 -343 -3 -344 -10z"/>
<path d="M755 5919 c-159 -92 -294 -170 -300 -172 -5 -2 78 -154 184 -338 107
-184 204 -352 216 -374 12 -22 46 -80 76 -130 30 -49 57 -98 61 -108 4 -10 11
-16 15 -14 57 31 580 332 587 338 5 4 -94 185 -219 401 -126 216 -239 413
-253 438 -14 25 -37 63 -51 86 l-26 41 -290 -168z"/>
<path d="M5133 5803 c-176 -304 -170 -292 -263 -455 -36 -62 -70 -122 -77
-133 -41 -68 -46 -84 -33 -100 7 -8 16 -15 20 -15 4 0 74 -39 156 -87 368
-213 408 -234 417 -215 5 9 26 46 47 82 21 36 120 207 220 380 101 173 204
352 231 397 l48 82 -32 19 c-55 33 -270 158 -317 184 -25 14 -89 51 -142 82
-53 31 -101 56 -106 56 -4 0 -81 -125 -169 -277z"/>
<path d="M2967 4954 c-1 -1 -58 -4 -127 -8 -69 -3 -136 -8 -150 -10 -14 -3
-54 -7 -90 -10 -36 -3 -76 -8 -90 -10 -14 -3 -70 -12 -125 -20 -139 -22 -148
-24 -255 -47 -104 -23 -271 -66 -395 -102 l-80 -23 -3 -287 c-1 -158 -1 -287
0 -287 2 0 65 20 140 45 144 47 440 126 543 144 33 6 71 13 85 16 52 9 157 25
200 30 25 3 65 7 90 10 105 13 186 16 370 15 107 0 211 -2 230 -4 19 -2 71 -6
115 -10 44 -4 103 -11 130 -16 28 -5 62 -12 78 -14 110 -19 166 -31 267 -57
118 -31 330 -99 384 -124 17 -7 69 -29 116 -49 161 -66 400 -195 595 -320 81
-52 292 -202 305 -216 3 -3 34 -27 70 -55 56 -42 222 -179 256 -210 6 -5 40
-35 75 -67 163 -144 469 -440 469 -453 0 -15 -307 -315 -430 -422 -217 -187
-512 -399 -710 -511 -77 -44 -354 -183 -420 -211 -260 -111 -601 -212 -833
-246 -23 -4 -44 -8 -47 -10 -3 -1 -32 -6 -65 -9 -33 -4 -71 -9 -85 -11 -25 -5
-68 -9 -215 -20 -161 -13 -602 -6 -680 10 -11 2 -47 7 -80 10 -33 3 -69 7 -80
9 -11 2 -46 7 -79 11 -114 13 -370 64 -531 105 -66 17 -127 32 -135 34 -45 12
-103 28 -116 33 -12 4 -14 -36 -14 -275 0 -259 1 -281 18 -286 74 -22 384 -98
457 -112 50 -9 99 -18 110 -20 38 -8 70 -13 110 -19 22 -3 63 -10 90 -15 28
-5 80 -12 117 -15 37 -3 75 -7 85 -9 171 -32 864 -26 1073 9 14 2 45 7 70 10
25 3 81 12 125 20 44 8 96 17 115 20 19 3 53 11 75 16 22 6 49 13 60 15 92 17
281 71 442 127 321 112 652 279 948 477 107 71 365 265 415 312 14 13 63 57
110 98 212 189 414 407 632 680 l83 105 0 80 0 81 -95 119 c-234 297 -611 696
-814 864 -43 36 -83 69 -90 75 -6 6 -51 43 -101 81 -49 38 -92 72 -95 76 -7 9
-348 239 -355 239 -2 0 -28 15 -57 33 -161 102 -474 252 -693 332 -214 79
-496 156 -660 181 -16 3 -70 12 -120 20 -86 15 -107 18 -220 29 -114 11 -510
26 -518 19z"/>
<path d="M2939 4166 c-2 -2 -29 -7 -59 -11 -71 -9 -220 -48 -302 -78 -376
-142 -674 -469 -776 -852 -34 -130 -44 -205 -46 -350 -5 -337 123 -663 356
-906 198 -207 455 -334 783 -387 63 -11 395 -9 455 2 227 43 406 112 564 219
86 58 93 64 191 162 231 232 353 527 360 870 2 77 -1 167 -6 200 -5 33 -11 71
-13 85 -16 112 -83 294 -147 403 -165 279 -410 474 -723 578 -33 10 -69 21
-80 23 -22 5 -98 21 -151 32 -32 7 -400 16 -406 10z m339 -595 c284 -56 508
-301 539 -591 27 -256 -40 -464 -200 -622 -141 -139 -311 -200 -537 -193 -97
2 -130 8 -209 34 -227 76 -374 230 -447 466 -26 87 -26 313 0 410 73 269 299
470 564 501 31 3 58 8 60 9 7 6 179 -5 230 -14z"/>
</g>
</svg>
